<svg xmlns="http://www.w3.org/2000/svg" width="40" height="40" viewBox="0 0 40 40">
  <g id="spaceship" transform="translate(3.572 -2.999)">
    <path id="Union_1" data-name="Union 1" d="M17.588,28.142l-6.853-7.021A38.575,38.575,0,0,0,0,22.453a13.741,13.741,0,0,1,11.132-8.129A37.988,37.988,0,0,1,26.694,0L37.151,10.712A38.362,38.362,0,0,1,24.345,25.887q-.007.066-.015.133A14.029,14.029,0,0,1,15.842,37.4,40.339,40.339,0,0,0,17.588,28.142Zm4.671-17.63a3.44,3.44,0,0,0,0,4.782,3.245,3.245,0,0,0,4.669,0,3.44,3.44,0,0,0,0-4.782,3.246,3.246,0,0,0-4.669,0Z" transform="translate(-3.572 5.603)" fill="#2fcdb1"/>
    <path id="Path_11" data-name="Path 11" d="M6.353,48A4.358,4.358,0,0,0,2,52.353v3.731a.622.622,0,0,0,.622.622H6.353a4.353,4.353,0,1,0,0-8.706Z" transform="translate(-2.107 -16.483)" fill="#2fcdb1"/>
    <path id="Path_14" data-name="Path 14" d="M6.353,48A4.358,4.358,0,0,0,2,52.353v3.731a.622.622,0,0,0,.622.622H6.353a4.353,4.353,0,1,0,0-8.706Z" transform="translate(-4.594 -13.996)" fill="#2fcdb1"/>
    <path id="Path_12" data-name="Path 12" d="M52.2,15.3A37.351,37.351,0,0,0,55.111,2.7a.66.66,0,0,0-.192-.505.675.675,0,0,0-.5-.194A38.307,38.307,0,0,0,41.594,4.662Z" transform="translate(-18.684 1)" fill="#2fcdb1"/>
  </g>
</svg>
